<?xml version="1.0" encoding="utf-8"?>
<!-- Generator: Adobe Illustrator 24.3.0, SVG Export Plug-In . SVG Version: 6.00 Build 0)  -->
<svg version="1.1" id="Calque_1" xmlns="http://www.w3.org/2000/svg" xmlns:xlink="http://www.w3.org/1999/xlink" x="0px" y="0px"
	 viewBox="0 0 23.1 24.4" style="enable-background:new 0 0 23.1 24.4;" xml:space="preserve">
<style type="text/css">
	.st0{fill:#FFFFFF;}
</style>
<g id="Groupe_5" transform="translate(-141.79 -320.068)">
	<path id="Tracé_1" class="st0" d="M159.9,332C159.9,332,159.9,332.1,159.9,332c-0.1,0.1-0.1,0.1-0.1,0.1l-5.1,0.4l3.3,3.9
		c0,0,0,0,0,0c0,0,0,0,0,0.1c0,0,0,0,0,0c0,0,0,0,0,0l-0.1,0.1c0,0,0,0,0,0c0,0,0,0,0,0c0,0,0,0-0.1,0c0,0,0,0,0,0l-3.9-3.3
		l-0.4,5.1c0,0,0,0.1,0,0.1c0,0,0,0-0.1,0h-0.1c0,0-0.1,0-0.1,0c0,0,0-0.1,0-0.1l-0.4-5.1l-3.9,3.3c0,0,0,0,0,0c0,0,0,0,0,0
		c0,0,0,0,0,0c0,0,0,0,0,0l-0.1-0.1c0,0,0,0,0,0c0,0,0,0,0,0c0,0,0,0,0,0c0,0,0,0,0,0l3.3-3.9l-5.1-0.4c0,0-0.1,0-0.1,0
		c0,0,0-0.1,0-0.1v-0.1c0,0,0-0.1,0-0.1c0,0,0,0,0.1,0l5.1-0.4l-3.3-3.9c0,0,0,0,0,0c0,0,0,0,0-0.1c0,0,0,0,0,0c0,0,0,0,0,0l0.1-0.1
		c0,0,0,0,0,0c0,0,0,0,0,0c0,0,0,0,0.1,0c0,0,0,0,0,0l3.9,3.3l0.4-5.1c0,0,0-0.1,0-0.1c0,0,0,0,0.1,0h0.1c0.1,0,0.1,0.1,0.1,0.1
		l0.4,5.1l3.9-3.3c0,0,0,0,0,0c0,0,0,0,0.1,0c0,0,0,0,0,0c0,0,0,0,0,0l0.1,0.1c0,0,0,0,0,0c0,0,0,0,0,0c0,0,0,0,0,0.1c0,0,0,0,0,0
		l-3.3,3.9l5.1,0.4c0,0,0.1,0,0.1,0C159.9,331.9,159.9,331.9,159.9,332L159.9,332z"/>
</g>
</svg>
