<?xml version="1.0" encoding="utf-8"?>
<!-- Generator: Adobe Illustrator 24.3.0, SVG Export Plug-In . SVG Version: 6.00 Build 0)  -->
<svg version="1.1" id="Calque_1" xmlns="http://www.w3.org/2000/svg" xmlns:xlink="http://www.w3.org/1999/xlink" x="0px" y="0px"
	 viewBox="0 0 16 17.4" style="enable-background:new 0 0 16 17.4;" xml:space="preserve">
<style type="text/css">
	.st0{fill:#FFFFFF;}
</style>
<g>
	<path class="st0" d="M9.5,8.2c0.2,0,0.5,0,0.6-0.1c0.2-0.1,0.4-0.3,0.6-0.5c0.3-0.3,0.5-0.5,0.7-0.6c0.2-0.1,0.4-0.1,0.6-0.1
		c0.4,0,0.7,0.1,1,0.4c0.3,0.3,0.4,0.6,0.4,1c0,0.4-0.1,0.8-0.4,1.1c-0.3,0.3-0.6,0.4-1,0.4c-0.2,0-0.5,0-0.6-0.1
		c-0.2-0.1-0.4-0.3-0.7-0.6c-0.2-0.3-0.5-0.4-0.6-0.5C10,8.5,9.8,8.5,9.5,8.5H9.2C9.1,8.7,9,8.9,8.9,9C8.7,9.2,8.6,9.3,8.3,9.3v0.4
		c0,0.4,0.2,0.8,0.6,1.2c0,0,0,0,0,0c0.3,0.3,0.5,0.5,0.6,0.7s0.1,0.4,0.1,0.6c0,0.4-0.1,0.8-0.4,1c-0.3,0.3-0.6,0.4-1.1,0.4
		c-0.4,0-0.8-0.1-1.1-0.4c-0.3-0.3-0.4-0.6-0.4-1c0-0.2,0-0.5,0.1-0.6c0.1-0.2,0.3-0.4,0.6-0.7c0.3-0.3,0.5-0.5,0.5-0.6
		C8,10.2,8.1,9.9,8.1,9.7V9.3C7.8,9.3,7.6,9.2,7.5,9C7.4,8.9,7.3,8.7,7.2,8.5H6.9c-0.3,0-0.5,0-0.7,0.1C6,8.7,5.8,8.9,5.6,9.1
		C5.3,9.4,5.1,9.6,4.9,9.7C4.7,9.8,4.5,9.8,4.3,9.8c-0.4,0-0.7-0.1-1-0.4C3,9.1,2.8,8.8,2.8,8.3c0-0.4,0.1-0.8,0.4-1
		c0.3-0.3,0.6-0.4,1-0.4c0.3,0,0.5,0,0.7,0.1c0.2,0.1,0.4,0.3,0.6,0.5C5.8,7.8,6,8,6.2,8.1c0.2,0.1,0.4,0.1,0.7,0.1h0.4
		C7.3,8,7.4,7.8,7.5,7.7c0.1-0.1,0.3-0.2,0.6-0.3V7c0-0.2,0-0.5-0.1-0.6C7.9,6.2,7.7,6,7.4,5.7C7.1,5.5,7,5.2,6.9,5.1
		C6.8,4.9,6.7,4.7,6.7,4.4c0-0.4,0.1-0.8,0.4-1C7.4,3.1,7.8,3,8.2,3C8.6,3,9,3.1,9.3,3.4c0.3,0.3,0.4,0.6,0.4,1c0,0.2,0,0.5-0.1,0.6
		C9.5,5.2,9.3,5.5,9,5.7C8.7,6,8.5,6.2,8.4,6.4C8.4,6.6,8.3,6.8,8.3,7v0.4c0.2,0.1,0.4,0.2,0.6,0.3C9,7.8,9.1,8,9.2,8.2H9.5z"/>
</g>
</svg>
