<?xml version="1.0" encoding="utf-8"?>
<!-- Generator: Adobe Illustrator 24.3.0, SVG Export Plug-In . SVG Version: 6.00 Build 0)  -->
<svg version="1.1" id="Calque_1" xmlns="http://www.w3.org/2000/svg" xmlns:xlink="http://www.w3.org/1999/xlink" x="0px" y="0px"
	 viewBox="0 0 36.3 38.3" style="enable-background:new 0 0 36.3 38.3;" xml:space="preserve">
<style type="text/css">
	.st0{fill:#FFFFFF;}
</style>
<g id="Groupe_18" transform="translate(-3414.49 144.48)">
	<path id="Tracé_128" class="st0" d="M3433.7-139.8v21.3l8.7-8.7c0.4-0.4,1-0.4,1.4,0c0.4,0.4,0.4,1,0,1.4l0,0l-8.8,8.8
		c-1.3,1.3-3.4,1.3-4.7,0c0,0,0,0,0,0l0,0l-8.8-8.8c-0.4-0.4-0.4-1,0-1.4c0.4-0.4,1-0.4,1.4,0l8.8,8.8v-21.3c0-0.6,0.5-1,1-1l0,0
		C3433.2-140.8,3433.7-140.3,3433.7-139.8L3433.7-139.8L3433.7-139.8z M3447.5-117.8c0-0.6-0.5-1-1-1l0,0c-0.6,0-1,0.5-1,1
		c0,0,0,0,0,0v3.4c0,0.7-0.6,1.3-1.3,1.3h-23.1c-0.7,0-1.3-0.6-1.3-1.3c0,0,0,0,0,0v-3.4c0-0.6-0.5-1-1-1l0,0c-0.6,0-1,0.5-1,1
		c0,0,0,0,0,0v3.4c0,1.8,1.5,3.3,3.3,3.3h23.1c1.8,0,3.3-1.5,3.3-3.3L3447.5-117.8z"/>
</g>
</svg>
