<?xml version="1.0" encoding="utf-8"?>
<!-- Generator: Adobe Illustrator 24.3.0, SVG Export Plug-In . SVG Version: 6.00 Build 0)  -->
<svg version="1.1" id="Calque_1" xmlns="http://www.w3.org/2000/svg" xmlns:xlink="http://www.w3.org/1999/xlink" x="0px" y="0px"
	 viewBox="0 0 36.26 38.32" style="enable-background:new 0 0 36.26 38.32;" xml:space="preserve">
<style type="text/css">
	.st0{fill:#FFFFFF;}
</style>
<g>
	<path class="st0" d="M21.87,28.52c-0.03-0.02-0.04-0.04-0.07-0.05c-0.09-0.03-0.13-0.11-0.16-0.19c-0.01-0.03,0-0.09,0.02-0.12
		c0.05-0.06,0.13-0.09,0.2-0.09c0.12,0,0.24,0.02,0.36,0.03c0.22,0.01,0.44,0.03,0.65-0.01c0.02,0,0.05-0.01,0.07-0.02
		c0.12-0.06,0.22-0.01,0.26,0.11c0.04,0.11,0,0.24-0.1,0.3c-0.06,0.04-0.13,0.06-0.19,0.1c-0.05,0.04-0.1,0.09-0.14,0.14
		c-0.09,0.13-0.18,0.26-0.26,0.39c-0.02,0.03-0.04,0.07-0.06,0.11c-0.04,0.08-0.11,0.13-0.19,0.13c-0.07,0-0.15-0.07-0.18-0.15
		c-0.03-0.09-0.06-0.19-0.09-0.27c-0.11-0.04-0.19,0.01-0.27,0.04c-0.27,0.11-0.54,0.2-0.81,0.27c-0.25,0.07-0.49,0.16-0.73,0.24
		c-0.17,0.05-0.35,0.11-0.53,0.13c-0.05,0.01-0.1,0.03-0.15,0.04c-0.08,0.02-0.16,0.03-0.24,0.04c-0.26,0.03-0.52,0.09-0.78,0.13
		c-0.22,0.03-0.42,0.12-0.63,0.16c-0.29,0.05-0.58,0.08-0.87,0.06c-0.11,0-0.22,0.01-0.33,0.01c-0.23,0.01-0.46,0.02-0.69-0.02
		c-0.11-0.02-0.23-0.03-0.34-0.01c-0.17,0.03-0.32,0-0.48-0.03c-0.19-0.04-0.38-0.09-0.57-0.13c-0.18-0.04-0.37-0.07-0.55-0.1
		c-0.04-0.01-0.08-0.02-0.12-0.03c-0.28-0.1-0.56-0.19-0.8-0.35c-0.05-0.04-0.12-0.05-0.17-0.08c-0.24-0.13-0.47-0.27-0.71-0.4
		c-0.01-0.01-0.02-0.02-0.03-0.02c-0.14-0.01-0.25-0.1-0.36-0.18c-0.03-0.02-0.06-0.04-0.09-0.05c-0.15-0.04-0.26-0.15-0.36-0.26
		c-0.01-0.01-0.01-0.02-0.02-0.03c-0.26-0.17-0.44-0.42-0.69-0.61c-0.22-0.17-0.39-0.38-0.58-0.58c-0.09-0.09-0.16-0.2-0.24-0.3
		c-0.02-0.02-0.03-0.05-0.05-0.06c-0.17-0.08-0.25-0.24-0.33-0.4c-0.01-0.03-0.03-0.06-0.06-0.09c-0.1-0.12-0.21-0.24-0.3-0.37
		C9.05,25.9,9,25.79,8.96,25.69c-0.04-0.09-0.05-0.18-0.09-0.26c-0.01-0.04-0.05-0.07-0.08-0.1c-0.06-0.03-0.08-0.08-0.1-0.14
		C8.63,25,8.56,24.8,8.49,24.61c-0.02-0.04-0.03-0.09-0.04-0.14c-0.06-0.26-0.13-0.52-0.19-0.79c-0.01-0.06-0.03-0.12-0.04-0.18
		c-0.03-0.23-0.09-0.46-0.09-0.69c0-0.32-0.06-0.63-0.07-0.94c0-0.16,0.01-0.32,0.02-0.48c0-0.02,0-0.03,0-0.05
		c0.02-0.32,0.03-0.65,0.05-0.97c0-0.07,0.02-0.14,0.03-0.22c0.01-0.07,0.03-0.14,0.02-0.2c-0.01-0.17,0.03-0.32,0.06-0.48
		c0.04-0.17,0.06-0.35,0.09-0.53c0.04-0.27,0.08-0.54,0.19-0.8c0.03-0.06,0.04-0.12,0.06-0.18c0.04-0.12,0.08-0.24,0.12-0.37
		c0.03-0.11,0.05-0.22,0.07-0.32c0.01-0.03,0.01-0.08,0.03-0.09c0.13-0.11,0.14-0.27,0.19-0.41c0.07-0.2,0.15-0.4,0.22-0.6
		c0.03-0.07,0.06-0.14,0.08-0.22c0.05-0.2,0.15-0.38,0.23-0.57c0.05-0.13,0.09-0.26,0.15-0.38c0.08-0.18,0.16-0.36,0.25-0.53
		c0.11-0.22,0.22-0.44,0.34-0.66c0.04-0.07,0.09-0.14,0.14-0.21c0.06-0.1,0.13-0.19,0.2-0.29c0.13-0.17,0.27-0.33,0.4-0.5
		c0.1-0.12,0.2-0.23,0.31-0.34c0.08-0.09,0.17-0.17,0.26-0.24c0.26-0.22,0.51-0.44,0.74-0.69c0.13-0.15,0.29-0.26,0.44-0.39
		c0.19-0.17,0.43-0.28,0.64-0.42c0.19-0.12,0.38-0.26,0.56-0.39c0.33-0.23,0.67-0.46,1.03-0.65c0.28-0.14,0.55-0.3,0.82-0.44
		c0.12-0.06,0.25-0.11,0.38-0.15c0.22-0.08,0.44-0.17,0.66-0.24c0.16-0.05,0.33-0.09,0.49-0.14c0.12-0.04,0.24-0.07,0.37-0.11
		c0.08-0.02,0.16-0.04,0.23-0.06c0.06-0.01,0.11-0.03,0.17-0.05c0.03-0.01,0.06-0.02,0.1-0.03c0.12-0.02,0.25-0.04,0.37-0.07
		c0.12-0.03,0.26-0.01,0.38-0.02c0.04,0,0.09,0,0.11-0.03c0.06-0.07,0.13-0.07,0.21-0.07c0.27-0.02,0.54-0.04,0.81-0.05
		c0.1-0.01,0.21,0,0.31,0.01c0.17,0.01,0.34,0.03,0.51,0.05c0.21,0.03,0.41,0.07,0.62,0.1c0.14,0.02,0.28,0.02,0.42,0.05
		c0.24,0.05,0.48,0.11,0.7,0.22c0.07,0.04,0.14,0.07,0.21,0.11c0.04,0.02,0.09,0.04,0.08,0.1c0,0.01,0.02,0.03,0.04,0.04
		c0.17,0.1,0.36,0.18,0.56,0.21c0.06,0.01,0.12,0.05,0.17,0.08c0.06,0.03,0.12,0.07,0.18,0.09c0.11,0.03,0.21,0.09,0.3,0.16
		c0.16,0.13,0.31,0.27,0.49,0.37c0.17,0.1,0.28,0.28,0.49,0.34c0.04,0.01,0.07,0.07,0.11,0.1c0.08,0.08,0.17,0.15,0.25,0.23
		c0.05,0.05,0.11,0.09,0.16,0.15c0.14,0.17,0.28,0.34,0.47,0.47c0.03,0.02,0.05,0.06,0.08,0.09c0.09,0.11,0.19,0.21,0.28,0.33
		c0.14,0.2,0.29,0.39,0.37,0.62c0.02,0.05,0.04,0.1,0.07,0.15c0.07,0.12,0.13,0.24,0.2,0.36c0.03,0.05,0.07,0.1,0.1,0.15
		c0.12,0.2,0.22,0.4,0.28,0.63c0.04,0.15,0.09,0.29,0.13,0.44c0.05,0.17,0.1,0.34,0.19,0.5c0.03,0.07,0.04,0.15,0.05,0.22
		c0.03,0.16,0.06,0.33,0.1,0.49c0.02,0.1,0.03,0.21,0.06,0.31c0.07,0.21,0.06,0.42,0.07,0.63c0.01,0.15,0.03,0.31,0.04,0.46
		c0.01,0.12,0.01,0.25,0.01,0.37c0,0.14-0.01,0.28-0.01,0.42c0,0.2,0,0.41-0.02,0.61c-0.01,0.16-0.06,0.32-0.09,0.48
		c-0.01,0.08-0.02,0.16-0.03,0.24c-0.01,0.12-0.01,0.24-0.02,0.36c0,0.03-0.01,0.07,0,0.1c0.02,0.21-0.03,0.41-0.07,0.61
		c-0.04,0.2-0.06,0.4-0.1,0.59c-0.02,0.11-0.06,0.22-0.11,0.31c-0.16,0.31-0.32,0.62-0.49,0.92c-0.06,0.12-0.15,0.22-0.23,0.32
		c-0.09,0.12-0.18,0.24-0.28,0.36c-0.05,0.06-0.1,0.1-0.16,0.15c-0.13,0.12-0.25,0.24-0.39,0.34c-0.16,0.11-0.33,0.2-0.49,0.3
		c-0.27,0.17-0.57,0.31-0.87,0.42c-0.29,0.11-0.58,0.23-0.91,0.26c-0.32,0.02-0.64,0.04-0.96-0.02c-0.16-0.03-0.32-0.06-0.48-0.08
		c-0.02,0-0.05-0.01-0.08,0c-0.16,0.01-0.31-0.02-0.45-0.08c-0.24-0.11-0.49-0.21-0.69-0.4c-0.08-0.08-0.17-0.15-0.27-0.19
		c-0.1-0.05-0.22-0.07-0.33-0.09c-0.12-0.03-0.23-0.04-0.35-0.06c-0.24-0.04-0.46-0.15-0.67-0.25c-0.29-0.13-0.57-0.26-0.85-0.4
		c-0.24-0.11-0.48-0.22-0.71-0.36c-0.21-0.12-0.41-0.27-0.61-0.41c-0.17-0.12-0.33-0.24-0.51-0.36c0.08,0.19,0.16,0.37,0.24,0.55
		c0.09,0.21,0.13,0.42,0.1,0.65c-0.01,0.13-0.01,0.27-0.01,0.41c0,0.03-0.01,0.06-0.01,0.09c0,0.03-0.02,0.05-0.02,0.08
		c0,0.28,0,0.56,0.01,0.84c0,0.06-0.01,0.12,0,0.18c0.01,0.07,0.04,0.15,0.07,0.22c0.04,0.1,0.04,0.2,0.03,0.3
		c-0.01,0.15,0.03,0.29,0.05,0.43c0.02,0.15,0.04,0.3,0.07,0.45c0.05,0.24,0.11,0.47,0.17,0.71c0,0.02,0.01,0.03,0.01,0.05
		c0,0.12,0.07,0.19,0.17,0.23c0.09,0.04,0.16,0.08,0.22,0.16c0.05,0.06,0.12,0.1,0.17,0.15c0.05,0.05,0.1,0.09,0.15,0.14
		c0.09,0.11,0.09,0.24,0,0.35c-0.05,0.06-0.1,0.1-0.16,0.15c-0.1,0.08-0.2,0.16-0.31,0.23c-0.1,0.07-0.19,0.14-0.29,0.22
		c-0.07,0.06-0.16,0.11-0.17,0.21c0,0.01-0.01,0.03-0.02,0.03c-0.15,0.08-0.17,0.25-0.26,0.37c-0.07,0.09-0.12,0.2-0.2,0.28
		c-0.06,0.06-0.13,0.11-0.23,0.11c-0.09,0-0.19,0.06-0.28,0.09c-0.1,0.03-0.2,0.05-0.3,0.01c-0.05-0.02-0.1-0.01-0.15-0.01
		c-0.1,0-0.2,0.01-0.31,0.02c-0.09,0-0.17-0.06-0.21-0.15c-0.02-0.06-0.05-0.12-0.07-0.18c-0.04-0.12,0.01-0.22,0.13-0.24
		c0.09-0.01,0.18-0.02,0.27-0.01c0.11,0.01,0.19-0.02,0.27-0.09c0.06-0.05,0.13-0.1,0.19-0.16c0.05-0.05,0.1-0.1,0.14-0.16
		c0.09-0.15,0.19-0.3,0.27-0.45c0.12-0.24,0.2-0.49,0.25-0.76c0.02-0.09,0.01-0.19,0-0.28c-0.04-0.29-0.05-0.58-0.15-0.86
		c-0.04-0.1-0.05-0.22-0.02-0.33c0.01-0.04,0-0.09-0.01-0.14c-0.06-0.22-0.13-0.43-0.2-0.65c-0.04-0.15-0.08-0.29-0.12-0.44
		c-0.15-0.45-0.28-0.9-0.47-1.33c-0.17-0.38-0.28-0.78-0.37-1.18c-0.02-0.1-0.06-0.2-0.09-0.31c-0.14,0.08-0.27,0.15-0.4,0.23
		c-0.18,0.11-0.35,0.24-0.54,0.35c-0.09,0.05-0.19,0.1-0.32,0.08c-0.06,0.09-0.13,0.18-0.19,0.27c-0.02,0.03-0.03,0.06-0.06,0.08
		c-0.17,0.18-0.27,0.4-0.41,0.59c-0.04,0.05-0.07,0.11-0.11,0.15c-0.07,0.09-0.13,0.18-0.16,0.29c-0.01,0.05-0.04,0.11-0.07,0.15
		c-0.1,0.15-0.11,0.3-0.04,0.46c0.06,0.14,0.04,0.22-0.09,0.29c-0.09,0.05-0.19,0.09-0.29,0.11c-0.08,0.02-0.17,0.01-0.25,0
		c-0.08-0.02-0.15-0.07-0.17-0.16c0-0.01,0-0.02-0.01-0.03c-0.04-0.11-0.05-0.22-0.1-0.33c-0.05-0.12-0.05-0.25-0.06-0.38
		c-0.01-0.2-0.07-0.38-0.2-0.53c-0.06-0.07-0.13-0.15-0.18-0.23c-0.08-0.12-0.16-0.25-0.22-0.38c-0.07-0.15-0.13-0.31-0.19-0.46
		c-0.07-0.16-0.1-0.34-0.1-0.51c0-0.16-0.05-0.3-0.11-0.43c-0.03-0.07-0.01-0.12,0.03-0.18c0.05-0.06,0.1-0.06,0.16-0.05
		c0.05,0.02,0.11,0.03,0.15,0.06c0.13,0.12,0.25,0.25,0.34,0.41c0.11,0.19,0.23,0.37,0.38,0.53c0.08,0.08,0.13,0.18,0.19,0.28
		c0.13,0.21,0.32,0.23,0.47,0.04c0.2-0.24,0.4-0.49,0.6-0.74c0.15-0.19,0.31-0.38,0.44-0.58c0.11-0.17,0.21-0.35,0.31-0.53
		c0.04-0.06,0.07-0.12,0.11-0.18c0.14-0.21,0.26-0.43,0.41-0.62c0.14-0.18,0.32-0.32,0.48-0.48c0.07-0.07,0.16-0.13,0.24-0.2
		c0.06-0.05,0.15-0.08,0.22-0.03c0.35,0.24,0.76,0.37,1.13,0.57c0.07,0.04,0.14,0.08,0.22,0.12c-0.11-0.19-0.19-0.38-0.31-0.55
		c-0.13-0.19-0.31-0.36-0.44-0.55c-0.13-0.18-0.3-0.3-0.46-0.44c-0.05-0.04-0.11-0.07-0.16-0.1c-0.2-0.14-0.41-0.27-0.6-0.42
		c-0.09-0.07-0.19-0.11-0.29-0.15c-0.2-0.07-0.39-0.17-0.59-0.25c-0.05-0.02-0.1-0.04-0.16-0.05c-0.1-0.02-0.16-0.07-0.2-0.16
		c-0.04-0.09,0-0.17,0.11-0.18c0.09-0.01,0.18,0.02,0.25,0.07c0.04,0.03,0.08,0.05,0.12,0.07c0.02,0.01,0.05-0.01,0.11-0.02
		c-0.05-0.05-0.08-0.1-0.12-0.12c-0.07-0.04-0.15-0.06-0.23-0.09c-0.08-0.03-0.14-0.12-0.15-0.2c0-0.08,0.04-0.13,0.12-0.12
		c0.08,0.01,0.16,0.04,0.23,0.07c0.07,0.03,0.14,0.08,0.22,0.13c0.04-0.05,0.08-0.1,0.13-0.16c-0.11-0.08-0.21-0.14-0.34-0.17
		c-0.12-0.04-0.21-0.12-0.27-0.23c0.05-0.13,0.12-0.17,0.24-0.12c0.04,0.02,0.08,0.04,0.11,0.06c0.1,0.1,0.23,0.16,0.35,0.23
		c0.19,0.09,0.37,0.2,0.53,0.33c0.02,0.01,0.04,0.01,0.07,0.02c0-0.01,0.01-0.02,0.01-0.03c-0.05-0.06-0.1-0.12-0.14-0.17
		c-0.02-0.02-0.04-0.05-0.04-0.08c-0.02-0.08,0.02-0.14,0.1-0.15c0.15-0.02,0.25,0.03,0.32,0.17c0.13,0.26,0.25,0.53,0.37,0.79
		c0.05,0.1,0.08,0.21,0.13,0.31c0.02,0.04,0.06,0.09,0.09,0.12c0.16,0.16,0.3,0.33,0.44,0.51c0.11,0.15,0.25,0.27,0.37,0.41
		c0.08,0.09,0.17,0.17,0.24,0.26c0.08,0.09,0.18,0.14,0.28,0.2c0.17,0.12,0.35,0.08,0.53,0.05c0.12-0.02,0.24-0.06,0.36-0.09
		c0.14-0.03,0.25-0.11,0.37-0.16c0.16-0.07,0.28-0.19,0.43-0.28c0.19-0.11,0.34-0.26,0.5-0.41c0.06-0.06,0.14-0.11,0.19-0.17
		c0.08-0.08,0.18-0.15,0.21-0.26c0-0.01,0.02-0.03,0.03-0.04c0.18-0.09,0.26-0.26,0.36-0.42c0.09-0.15,0.17-0.31,0.26-0.47
		c0.15-0.27,0.31-0.54,0.46-0.82c0.04-0.08,0.08-0.11,0.17-0.11c0.1,0,0.11-0.02,0.12-0.12c0.01-0.08,0.01-0.17,0.02-0.28
		c-0.05,0.04-0.08,0.07-0.12,0.09c-0.19,0.13-0.37,0.26-0.56,0.38c-0.07,0.05-0.13,0.11-0.23,0.09c-0.05-0.01-0.11-0.03-0.16-0.07
		c-0.05-0.04-0.05-0.12-0.01-0.16c0.14-0.12,0.2-0.28,0.3-0.43c0.17-0.29,0.24-0.6,0.27-0.93c0-0.03,0-0.06-0.01-0.1
		c-0.06,0-0.11,0.01-0.16,0c-0.06-0.01-0.13-0.02-0.18-0.04c-0.09-0.04-0.11-0.12-0.07-0.21c0.1-0.22,0.2-0.43,0.31-0.65
		c0.04-0.08,0.02-0.17,0.01-0.25c0-0.03-0.06-0.06-0.09-0.07c-0.1-0.05-0.19-0.09-0.29-0.13c-0.07-0.03-0.09-0.08-0.08-0.14
		c0.01-0.05,0.01-0.1,0.03-0.14c0.11-0.26,0.22-0.52,0.33-0.78c0.01-0.01,0.01-0.02,0.01-0.04c0.06-0.32,0.19-0.63,0.29-0.94
		c0.03-0.08,0.08-0.11,0.16-0.08c0.15,0.04,0.18,0.11,0.16,0.27c-0.03,0.22-0.06,0.43-0.09,0.65c-0.01,0.08-0.03,0.15-0.05,0.23
		c-0.02,0.09-0.04,0.18-0.04,0.28c0,0.06,0.01,0.12,0.03,0.17c0.01,0.03,0.06,0.05,0.1,0.05c0.16,0.02,0.32,0.01,0.48-0.02
		c0.2-0.04,0.21-0.06,0.24-0.27c0.01-0.07,0.03-0.14,0.05-0.21c0.04-0.19,0.03-0.38,0-0.58c-0.01-0.09,0.01-0.15,0.07-0.18
		c0.06-0.03,0.2,0,0.23,0.06c0.03,0.05,0.05,0.1,0.05,0.16c0.04,0.28,0.07,0.56,0.12,0.84c0.02,0.1,0.06,0.19,0.1,0.29
		c0.01,0.04,0.03,0.08,0.05,0.12c0.04,0.1-0.01,0.21-0.15,0.2c-0.16-0.01-0.31,0.04-0.47,0.06c-0.09,0.02-0.13,0.07-0.13,0.17
		c0,0.05,0,0.1,0,0.15c0.01,0.12,0.04,0.15,0.16,0.18c0.09,0.02,0.17,0.06,0.19,0.16c0.01,0.03,0.01,0.07,0,0.1
		c-0.05,0.14-0.08,0.29-0.08,0.44c0,0.07-0.01,0.14-0.1,0.18c-0.04,0.02-0.05,0.1-0.06,0.16c-0.01,0.26-0.01,0.52-0.01,0.79
		c0,0.1-0.01,0.2-0.01,0.3c0,0.13,0.01,0.26,0.01,0.39c0.06,0.01,0.11,0.02,0.13,0.02c0.08,0.06,0.15,0.1,0.21,0.16
		c0.04,0.04,0.08,0.08,0.09,0.13c0.05,0.21,0.09,0.42,0.12,0.63c0.04,0.25,0.06,0.5,0.08,0.75c0.02,0.18,0.04,0.36,0.05,0.54
		c0.01,0.22,0.02,0.45,0.02,0.67c0,0.27-0.01,0.55-0.02,0.82c-0.01,0.45-0.07,0.9-0.18,1.33c-0.05,0.19-0.09,0.37-0.13,0.56
		c-0.02,0.1-0.02,0.2-0.03,0.31c-0.01,0.19-0.11,0.35-0.17,0.52c-0.1,0.27-0.25,0.51-0.46,0.7c-0.08,0.08-0.16,0.15-0.24,0.23
		c-0.02,0.02-0.03,0.04-0.04,0.06c0.08,0.14,0.22,0.17,0.34,0.24c0.22,0.14,0.47,0.14,0.72,0.16c0.34,0.03,0.67-0.01,1.01-0.06
		c0.29-0.05,0.58-0.1,0.87-0.14c0.01,0,0.03,0,0.04-0.01c0.34-0.13,0.68-0.27,0.95-0.53c0.28-0.27,0.55-0.54,0.81-0.83
		c0.27-0.31,0.49-0.63,0.64-1.01c0.13-0.33,0.22-0.66,0.27-1.01c0.06-0.47,0.14-0.94,0.2-1.41c0.03-0.22,0.03-0.44,0.04-0.67
		c0.01-0.3,0.02-0.59,0.01-0.89c-0.01-0.31-0.05-0.62-0.06-0.92c-0.02-0.44-0.15-0.86-0.27-1.28c-0.01-0.04-0.04-0.09-0.07-0.12
		c-0.11-0.14-0.16-0.31-0.21-0.48c-0.04-0.13-0.08-0.26-0.15-0.38c-0.19-0.34-0.36-0.69-0.55-1.02c-0.16-0.28-0.34-0.54-0.56-0.78
		c-0.21-0.23-0.42-0.44-0.66-0.63c-0.22-0.19-0.42-0.39-0.67-0.53c-0.14-0.08-0.27-0.2-0.41-0.28c-0.24-0.15-0.48-0.29-0.73-0.43
		c-0.13-0.07-0.27-0.13-0.41-0.18c-0.12-0.05-0.25-0.08-0.38-0.13c-0.02-0.01-0.04-0.01-0.05-0.02c-0.08-0.15-0.23-0.13-0.36-0.16
		C21.82,9.05,21.58,9,21.34,8.98c-0.3-0.03-0.61-0.04-0.91-0.04c-0.19,0-0.38,0.01-0.56,0.03c-0.3,0.03-0.59,0.06-0.89,0.11
		c-0.41,0.06-0.81,0.16-1.2,0.28c-0.86,0.26-1.7,0.56-2.48,1.01c-0.34,0.2-0.69,0.39-1.02,0.61c-0.31,0.21-0.61,0.45-0.91,0.67
		c-0.28,0.2-0.51,0.44-0.77,0.67c-0.11,0.09-0.2,0.2-0.3,0.3c-0.53,0.54-1.02,1.13-1.45,1.76c-0.29,0.42-0.56,0.85-0.76,1.33
		c-0.1,0.24-0.19,0.49-0.28,0.73c-0.13,0.34-0.26,0.67-0.38,1.01c-0.15,0.44-0.29,0.88-0.4,1.33c-0.11,0.45-0.19,0.91-0.23,1.37
		c-0.06,0.56-0.07,1.12-0.04,1.68c0.02,0.45,0.07,0.89,0.13,1.33c0.04,0.28,0.11,0.56,0.17,0.84c0.1,0.43,0.25,0.84,0.41,1.25
		c0.22,0.54,0.48,1.05,0.88,1.47c0.31,0.34,0.65,0.65,1,0.94c0.33,0.27,0.68,0.51,1.05,0.72c0.21,0.11,0.42,0.21,0.64,0.31
		c0.41,0.19,0.81,0.39,1.22,0.58c0.29,0.14,0.59,0.22,0.91,0.28c0.27,0.05,0.54,0.06,0.81,0.06c0.41,0,0.83,0,1.24-0.01
		c0.31-0.01,0.63-0.02,0.94-0.05c0.39-0.04,0.78-0.12,1.15-0.25c0.26-0.08,0.52-0.13,0.78-0.19c0.02,0,0.04-0.01,0.06-0.01
		c0.26-0.07,0.51-0.15,0.77-0.2c0.26-0.05,0.51-0.14,0.76-0.24C21.74,28.61,21.8,28.56,21.87,28.52z M21.25,18.03
		c-0.03,0.01-0.05,0.01-0.06,0.02c-0.08,0.06-0.16,0.12-0.24,0.18c-0.31,0.22-0.67,0.35-1,0.51c-0.35,0.17-0.71,0.31-1.09,0.41
		c-0.25,0.07-0.49,0.18-0.73,0.28c-0.03,0.01-0.05,0.04-0.07,0.06c0.05,0.04,0.09,0.06,0.12,0.09c0.1,0.11,0.21,0.18,0.35,0.23
		c0.15,0.05,0.29,0.1,0.44,0.15c0.07,0.02,0.14,0.04,0.21,0.05c0.12,0.02,0.23,0.04,0.35,0.06c0.19,0.03,0.35,0.12,0.54,0.14
		c0.24,0.02,0.48,0.08,0.72,0.12c0.04,0.01,0.09,0.01,0.13,0.01c0.03-0.13,0.07-0.25,0.09-0.38c0.03-0.18,0.05-0.35,0.08-0.53
		c0.01-0.07,0.02-0.14,0.03-0.22c0.02-0.16,0.02-0.32,0.06-0.47C21.25,18.52,21.24,18.28,21.25,18.03z"/>
</g>
</svg>
