<?xml version="1.0" encoding="utf-8"?>
<!-- Generator: Adobe Illustrator 24.3.0, SVG Export Plug-In . SVG Version: 6.00 Build 0)  -->
<svg version="1.1" id="Calque_1" xmlns="http://www.w3.org/2000/svg" xmlns:xlink="http://www.w3.org/1999/xlink" x="0px" y="0px"
	 viewBox="0 0 36.26 38.32" style="enable-background:new 0 0 36.26 38.32;" xml:space="preserve">
<style type="text/css">
	.st0{fill:none;}
	.st1{fill:#FFFFFF;}
</style>
<g>
	<polygon class="st0" points="8.92,15.16 8.92,23.16 11.53,23.19 17.51,26.4 17.51,11.92 11.42,15.16 	"/>
	<path class="st1" d="M8.15,14.39v9.54h3.14l7,3.75V10.63l-7,3.75H8.15z M17.51,26.4l-5.98-3.21l-2.62-0.03v-8h2.5l6.1-3.24V26.4z"
		/>
	<path class="st1" d="M20.45,11.49H20.2v0.77h0.25c3.8,0,6.9,3.09,6.9,6.9c0,3.8-3.09,6.9-6.9,6.9H20.2v0.77h0.25
		c4.23,0,7.67-3.44,7.67-7.66C28.11,14.93,24.68,11.49,20.45,11.49z"/>
	<path class="st1" d="M25.94,19.16c0-3.03-2.46-5.49-5.49-5.49H20.2v0.77h0.25c2.61,0,4.72,2.12,4.72,4.72
		c0,2.6-2.12,4.72-4.72,4.72H20.2v0.77h0.25C23.48,24.65,25.94,22.19,25.94,19.16z"/>
	<path class="st1" d="M23.35,19.16c0-1.6-1.3-2.9-2.9-2.9H20.2v0.77h0.25c1.18,0,2.13,0.96,2.13,2.13s-0.96,2.13-2.13,2.13H20.2
		v0.77h0.25C22.05,22.06,23.35,20.76,23.35,19.16z"/>
</g>
</svg>
